# xmcd
#
# Track frame offsets:
#	150
#	20415
#	47720
#	75350
#	95622
#	107402
#	128077
#	152457
#	176335
#	193515
#	207287
#	223342
#
# Disc length: 3061 seconds
#
# Revision: 0
# Processed by: cddbd v1.4PL0 Copyright (c) Steve Scherf et al.
# Submitted via: EasyCDDAExtractor 4.6.9.1
#
DISCID=940bf30c
DTITLE=Arthur Williams - Ain't Goin' Down
DYEAR=2000
DGENRE=blues
TTITLE0=Poison Ivy
TTITLE1=Since I Met You Baby
TTITLE2=Arthur's Blues
TTITLE3=Ain't Goin' Down
TTITLE4=Slop the Hogs
TTITLE5=See See Rider
TTITLE6=Water in My Gas Tank
TTITLE7=East St. Louis Blues
TTITLE8=C'mon Baby
TTITLE9=Mojo Ain't Working
TTITLE10=Go On Little Girl
TTITLE11=Arthur's Dozens
EXTD=
EXTT0=
EXTT1=
EXTT2=
EXTT3=
EXTT4=
EXTT5=
EXTT6=
EXTT7=
EXTT8=
EXTT9=
EXTT10=
EXTT11=
PLAYORDER=
